0
SECTION
2
HEADER
9
$INSUNITS
70
4
9
$ACADVER
1
AC1014
9
$HANDSEED
5
FFFF
0
ENDSEC
0
SECTION
2
TABLES
0
TABLE
2
VPORT
5
8
100
AcDbSymbolTable
0
ENDTAB
0
TABLE
2
LTYPE
5
5
100
AcDbSymbolTable
0
LTYPE
5
14
100
AcDbSymbolTableRecord
100
AcDbLinetypeTableRecord
2
BYBLOCK
70
0
0
LTYPE
5
15
100
AcDbSymbolTableRecord
100
AcDbLinetypeTableRecord
2
BYLAYER
70
0
0
LTYPE
5
16
100
AcDbSymbolTableRecord
100
AcDbLinetypeTableRecord
2
DASHED
70
0
3
Dashed __ __ __ __ __ __ __ __ __ __ __ __ __ _
72
65
73
2
40
0.75
49
0.5
74
0
49
-0.25
74
0
0
ENDTAB
0
TABLE
2
LAYER
5
2
100
AcDbSymbolTable
70
2
0
LAYER
5
50
100
AcDbSymbolTableRecord
100
AcDbLayerTableRecord
2
0
70
0
62
7
6
CONTINUOUS
0
ENDTAB
0
TABLE
2
STYLE
5
3
100
AcDbSymbolTable
70
1
0
STYLE
5
11
100
AcDbSymbolTableRecord
100
AcDbTextStyleTableRecord
2
STANDARD
70
0
0
ENDTAB
0
TABLE
2
VIEW
5
6
100
AcDbSymbolTable
70
0
0
ENDTAB
0
TABLE
2
UCS
5
7
100
AcDbSymbolTable
70
0
0
ENDTAB
0
TABLE
2
APPID
5
9
100
AcDbSymbolTable
70
2
0
APPID
5
12
100
AcDbSymbolTableRecord
100
AcDbRegAppTableRecord
2
ACAD
70
0
0
ENDTAB
0
TABLE
2
DIMSTYLE
5
A
100
AcDbSymbolTable
70
1
0
ENDTAB
0
TABLE
2
BLOCK_RECORD
5
1
100
AcDbSymbolTable
70
1
0
BLOCK_RECORD
5
1F
100
AcDbSymbolTableRecord
100
AcDbBlockTableRecord
2
*MODEL_SPACE
0
BLOCK_RECORD
5
1B
100
AcDbSymbolTableRecord
100
AcDbBlockTableRecord
2
*PAPER_SPACE
0
ENDTAB
0
ENDSEC
0
SECTION
2
BLOCKS
0
BLOCK
5
20
100
AcDbEntity
100
AcDbBlockBegin
2
*MODEL_SPACE
0
ENDBLK
5
21
100
AcDbEntity
100
AcDbBlockEnd
0
BLOCK
5
1C
100
AcDbEntity
100
AcDbBlockBegin
2
*PAPER_SPACE
0
ENDBLK
5
1D
100
AcDbEntity
100
AcDbBlockEnd
0
ENDSEC
0
SECTION
2
ENTITIES
0
LWPOLYLINE
5
100
100
AcDbEntity
8
0
100
AcDbPolyline
90
8
70
1
43
0.0
10
240.88750000000002
20
-76.200000000000017
42
0.41421356237309503
10
242.88749999999999
20
-74.200000000000017
10
242.88749999999996
20
-2.0000000000000022
42
0.41421356237309509
10
240.88749999999999
20
0
10
1.9999999999999929
20
0
42
0.41421356237309531
10
0
20
-2.0000000000000018
10
5.5511151231257827e-16
20
-74.200000000000003
42
0.41421356237309398
10
1.9999999999999929
20
-76.200000000000017
0
CIRCLE
5
101
100
AcDbEntity
8
0
100
AcDbCircle
10
121.44374999999999
20
-38.099999999999994
30
0
40
2.2000000000000064
210
0
220
-0
230
1
0
CIRCLE
5
102
100
AcDbEntity
8
0
100
AcDbCircle
10
16.668750000000003
20
-19.050000000000004
30
0
40
2.1999999999999997
210
0
220
-0
230
1
0
CIRCLE
5
103
100
AcDbEntity
8
0
100
AcDbCircle
10
226.21875
20
-57.149999999999977
30
0
40
2.1999999999999886
210
0
220
-0
230
1
0
CIRCLE
5
104
100
AcDbEntity
8
0
100
AcDbCircle
10
16.668750000000003
20
-57.149999999999999
30
0
40
2.1999999999999997
210
0
220
-0
230
1
0
CIRCLE
5
105
100
AcDbEntity
8
0
100
AcDbCircle
10
226.21875
20
-19.050000000000004
30
0
40
2.1999999999999886
210
0
220
-0
230
1
0
ARC
5
106
100
AcDbEntity
8
0
100
AcDbCircle
10
98.375000000000028
20
-60.27500000000002
30
0
40
0.60000000000002274
210
0
220
0
230
1
100
AcDbArc
50
90.000000000002714
51
180
0
LINE
5
107
100
AcDbEntity
8
0
100
AcDbLine
10
97.77500000000002
20
-60.274999999999999
30
0
11
97.775000000000006
21
-73.075000000000003
31
0
0
ARC
5
108
100
AcDbEntity
8
0
100
AcDbCircle
10
98.375000000000028
20
-73.074999999999989
30
0
40
0.60000000000002274
210
0
220
0
230
1
100
AcDbArc
50
180
51
269.99999999999721
0
LINE
5
109
100
AcDbEntity
8
0
100
AcDbLine
10
98.375
20
-73.675000000000011
30
0
11
144.51249999999999
21
-73.674999999999997
31
0
0
ARC
5
110
100
AcDbEntity
8
0
100
AcDbCircle
10
144.51249999999999
20
-73.074999999999989
30
0
40
0.60000000000001386
210
0
220
0
230
1
100
AcDbArc
50
270
51
360
0
LINE
5
111
100
AcDbEntity
8
0
100
AcDbLine
10
145.11249999999998
20
-73.075000000000003
30
0
11
145.11250000000001
21
-60.274999999999999
31
0
0
ARC
5
112
100
AcDbEntity
8
0
100
AcDbCircle
10
144.51249999999999
20
-60.27500000000002
30
0
40
0.60000000000002274
210
0
220
-0
230
1
100
AcDbArc
50
0
51
90
0
LINE
5
113
100
AcDbEntity
8
0
100
AcDbLine
10
144.51249999999999
20
-59.674999999999997
30
0
11
98.375
21
-59.674999999999997
31
0
0
LWPOLYLINE
5
114
100
AcDbEntity
8
0
100
AcDbPolyline
90
8
70
1
43
0.0
10
219.81875000000002
20
-2.5249999999999999
42
0.41421356237311158
10
219.21875000000006
20
-3.125
10
219.21875
20
-15.925000000000002
42
0.414213562373069
10
219.81875000000002
20
-16.525000000000041
10
232.61875000000003
20
-16.524999999999999
42
0.41421356237312756
10
233.21875000000003
20
-15.925000000000002
10
233.21875000000003
20
-3.125
42
0.41421356237312917
10
232.61875000000003
20
-2.5250000000000137
0
LWPOLYLINE
5
115
100
AcDbEntity
8
0
100
AcDbPolyline
90
8
70
1
43
0.0
10
36.462500000000006
20
-40.625
42
0.41421356237310153
10
35.86249999999999
20
-41.225000000000016
10
35.862499999999997
20
-54.024999999999999
42
0.41421356237309725
10
36.462500000000006
20
-54.625
10
49.262500000000003
20
-54.625
42
0.41421356237310375
10
49.862500000000011
20
-54.024999999999999
10
49.862499999999997
20
-41.225000000000009
42
0.41421356237309503
10
49.262500000000003
20
-40.625000000000007
0
LWPOLYLINE
5
116
100
AcDbEntity
8
0
100
AcDbPolyline
90
8
70
1
43
0.0
10
65.037499999999994
20
-21.575000000000003
42
0.41421356237309287
10
64.4375
20
-22.175000000000004
10
64.4375
20
-34.975000000000009
42
0.41421356237310153
10
65.037499999999994
20
-35.574999999999996
10
77.837500000000006
20
-35.575000000000003
42
0.41421356237309287
10
78.437500000000014
20
-34.975000000000009
10
78.4375
20
-22.175000000000004
42
0.41421356237309287
10
77.837500000000006
20
-21.575000000000021
0
LWPOLYLINE
5
117
100
AcDbEntity
8
0
100
AcDbPolyline
90
8
70
1
43
0.0
10
26.9375
20
-21.575000000000003
42
0.41421356237309936
10
26.337499999999999
20
-22.175000000000004
10
26.337499999999999
20
-34.975000000000009
42
0.41421356237309936
10
26.9375
20
-35.575000000000003
10
39.737499999999997
20
-35.575000000000003
42
0.41421356237310375
10
40.337499999999991
20
-34.975000000000009
10
40.337500000000006
20
-22.175000000000004
42
0.41421356237309725
10
39.737499999999997
20
-21.574999999999992
0
LWPOLYLINE
5
118
100
AcDbEntity
8
0
100
AcDbPolyline
90
8
70
1
43
0.0
10
5.5062500000000005
20
-59.675000000000004
42
0.41421356237310103
10
4.9062500000000098
20
-60.274999999999999
10
4.90625
20
-73.075000000000017
42
0.41421356237309614
10
5.5062500000000005
20
-73.675000000000011
10
20.6875
20
-73.674999999999997
42
0.41421356237309503
10
21.287499999999987
20
-73.075000000000017
10
21.287500000000001
20
-60.274999999999999
42
0.41421356237309076
10
20.6875
20
-59.674999999999997
0
LWPOLYLINE
5
119
100
AcDbEntity
8
0
100
AcDbPolyline
90
8
70
1
43
0.0
10
98.375
20
-2.5249999999999999
42
0.41421356237310863
10
97.775000000000006
20
-3.125
10
97.77500000000002
20
-15.925000000000002
42
0.41421356237307877
10
98.375
20
-16.524999999999991
10
111.175
20
-16.524999999999999
42
0.41421356237311452
10
111.77499999999998
20
-15.925000000000002
10
111.77500000000002
20
-3.125
42
0.41421356237310181
10
111.175
20
-2.5249999999999635
0
LWPOLYLINE
5
120
100
AcDbEntity
8
0
100
AcDbPolyline
90
8
70
1
43
0.0
10
174.57499999999999
20
-2.5249999999999999
42
0.41421356237310292
10
173.97500000000002
20
-3.125
10
173.97500000000002
20
-15.925000000000002
42
0.41421356237312001
10
174.57499999999999
20
-16.52499999999997
10
187.375
20
-16.524999999999999
42
0.41421356237310153
10
187.97499999999999
20
-15.925000000000002
10
187.97499999999999
20
-3.125
42
0.41421356237312051
10
187.375
20
-2.5250000000000314
0
LWPOLYLINE
5
121
100
AcDbEntity
8
0
100
AcDbPolyline
90
8
70
1
43
0.0
10
207.91250000000002
20
-40.625
42
0.41421356237310375
10
207.31250000000003
20
-41.225000000000009
10
207.31250000000003
20
-54.024999999999999
42
0.41421356237311674
10
207.91250000000002
20
-54.624999999999957
10
220.71250000000003
20
-54.625
42
0.41421356237310375
10
221.3125
20
-54.024999999999999
10
221.3125
20
-41.225000000000009
42
0.41421356237311674
10
220.71250000000003
20
-40.625000000000043
0
LWPOLYLINE
5
122
100
AcDbEntity
8
0
100
AcDbPolyline
90
8
70
1
43
0.0
10
122.1875
20
-21.575000000000003
42
0.41421356237309725
10
121.58750000000001
20
-22.175000000000004
10
121.58750000000001
20
-34.975000000000009
42
0.41421356237310591
10
122.1875
20
-35.574999999999982
10
134.98750000000001
20
-35.575000000000003
42
0.41421356237309725
10
135.58750000000001
20
-34.975000000000009
10
135.58750000000001
20
-22.175000000000004
42
0.41421356237309503
10
134.98750000000001
20
-21.574999999999996
0
LWPOLYLINE
5
123
100
AcDbEntity
8
0
100
AcDbPolyline
90
8
70
1
43
0.0
10
136.47500000000002
20
-2.5249999999999999
42
0.41421356237309559
10
135.875
20
-3.125
10
135.875
20
-15.925000000000002
42
0.41421356237309614
10
136.47500000000002
20
-16.525000000000009
10
149.27500000000003
20
-16.524999999999999
42
0.41421356237311452
10
149.875
20
-15.925000000000002
10
149.875
20
-3.125
42
0.41421356237309725
10
149.27500000000003
20
-2.5250000000000083
0
LWPOLYLINE
5
124
100
AcDbEntity
8
0
100
AcDbPolyline
90
8
70
1
43
0.0
10
198.38750000000002
20
-59.675000000000004
42
0.4142135623731254
10
197.78750000000002
20
-60.274999999999999
10
197.78750000000002
20
-73.075000000000017
42
0.41421356237311674
10
198.38750000000002
20
-73.674999999999969
10
213.56875000000002
20
-73.674999999999997
42
0.4142135623731254
10
214.16875000000002
20
-73.075000000000017
10
214.16875000000002
20
-60.274999999999999
42
0.4142135623731254
10
213.56875000000002
20
-59.675000000000018
0
LWPOLYLINE
5
125
100
AcDbEntity
8
0
100
AcDbPolyline
90
8
70
1
43
0.0
10
3.125
20
-2.5249999999999999
42
0.41421356237309503
10
2.5249999999999999
20
-3.125
10
2.5249999999999999
20
-15.925000000000002
42
0.41421356237309265
10
3.125
20
-16.525000000000002
10
15.925000000000002
20
-16.524999999999999
42
0.41421356237309503
10
16.524999999999999
20
-15.925000000000002
10
16.524999999999999
20
-3.125
42
0.41421356237309531
10
15.925000000000002
20
-2.5250000000000035
0
LWPOLYLINE
5
126
100
AcDbEntity
8
0
100
AcDbPolyline
90
8
70
1
43
0.0
10
155.52500000000003
20
-2.5249999999999999
42
0.41421356237309559
10
154.92500000000001
20
-3.125
10
154.92500000000001
20
-15.925000000000002
42
0.41421356237309614
10
155.52500000000003
20
-16.525000000000009
10
168.32499999999999
20
-16.524999999999999
42
0.41421356237310153
10
168.92499999999998
20
-15.925000000000002
10
168.92500000000001
20
-3.125
42
0.41421356237308693
10
168.32499999999999
20
-2.5249999999999941
0
LWPOLYLINE
5
127
100
AcDbEntity
8
0
100
AcDbPolyline
90
8
70
1
43
0.0
10
112.66249999999999
20
-40.625
42
0.41421356237309936
10
112.0625
20
-41.225000000000009
10
112.0625
20
-54.024999999999999
42
0.41421356237309503
10
112.66249999999999
20
-54.624999999999986
10
125.46250000000001
20
-54.625
42
0.41421356237309936
10
126.0625
20
-54.024999999999999
10
126.06250000000001
20
-41.225000000000009
42
0.41421356237309936
10
125.46250000000001
20
-40.624999999999993
0
LWPOLYLINE
5
128
100
AcDbEntity
8
0
100
AcDbPolyline
90
8
70
1
43
0.0
10
226.96250000000003
20
-40.625
42
0.41421356237310375
10
226.36250000000004
20
-41.225000000000009
10
226.36250000000004
20
-54.024999999999999
42
0.41421356237311674
10
226.96250000000003
20
-54.624999999999957
10
239.76249999999999
20
-54.625
42
0.41421356237308637
10
240.36250000000001
20
-54.024999999999999
10
240.36250000000001
20
-41.225000000000009
42
0.41421356237306473
10
239.76249999999999
20
-40.624999999999972
0
LWPOLYLINE
5
129
100
AcDbEntity
8
0
100
AcDbPolyline
90
8
70
1
43
0.0
10
160.28749999999999
20
-21.575000000000003
42
0.41421356237309725
10
159.6875
20
-22.175000000000004
10
159.6875
20
-34.975000000000009
42
0.41421356237309725
10
160.28749999999999
20
-35.574999999999996
10
173.08750000000001
20
-35.575000000000003
42
0.41421356237310375
10
173.6875
20
-34.975000000000009
10
173.68750000000003
20
-22.175000000000004
42
0.41421356237305174
10
173.08750000000003
20
-21.57499999999996
0
LWPOLYLINE
5
130
100
AcDbEntity
8
0
100
AcDbPolyline
90
8
70
1
43
0.0
10
188.86250000000001
20
-40.625
42
0.41421356237310375
10
188.26250000000002
20
-41.225000000000009
10
188.26249999999999
20
-54.024999999999999
42
0.41421356237306473
10
188.86250000000001
20
-54.625000000000028
10
201.66250000000002
20
-54.625
42
0.41421356237310375
10
202.26249999999999
20
-54.024999999999999
10
202.26249999999999
20
-41.225000000000009
42
0.41421356237311674
10
201.66250000000002
20
-40.625000000000043
0
LWPOLYLINE
5
131
100
AcDbEntity
8
0
100
AcDbPolyline
90
8
70
1
43
0.0
10
117.425
20
-2.5249999999999999
42
0.41421356237309559
10
116.82499999999999
20
-3.125
10
116.82500000000002
20
-15.925000000000002
42
0.41421356237309614
10
117.425
20
-16.524999999999991
10
130.22500000000002
20
-16.524999999999999
42
0.41421356237311452
10
130.82499999999999
20
-15.925000000000002
10
130.82499999999999
20
-3.125
42
0.41421356237309725
10
130.22500000000002
20
-2.5250000000000083
0
LWPOLYLINE
5
132
100
AcDbEntity
8
0
100
AcDbPolyline
90
8
70
1
43
0.0
10
103.1375
20
-21.575000000000003
42
0.41421356237311024
10
102.53749999999999
20
-22.175000000000004
10
102.53749999999999
20
-34.975000000000009
42
0.41421356237310802
10
103.13750000000002
20
-35.575000000000017
10
115.9375
20
-35.575000000000003
42
0.41421356237309725
10
116.53749999999999
20
-34.975000000000009
10
116.53750000000001
20
-22.175000000000004
42
0.41421356237309503
10
115.9375
20
-21.574999999999996
0
LWPOLYLINE
5
133
100
AcDbEntity
8
0
100
AcDbPolyline
90
8
70
1
43
0.0
10
10.268750000000002
20
-40.625
42
0.41421356237310153
10
9.6687500000000011
20
-41.225000000000009
10
9.6687499999999993
20
-54.024999999999999
42
0.41421356237309176
10
10.268750000000002
20
-54.625
10
23.068750000000001
20
-54.625
42
0.41421356237309503
10
23.668750000000006
20
-54.024999999999999
10
23.668749999999999
20
-41.225000000000009
42
0.41421356237310153
10
23.068750000000001
20
-40.625
0
LWPOLYLINE
5
134
100
AcDbEntity
8
0
100
AcDbPolyline
90
8
70
1
43
0.0
10
22.175000000000004
20
-2.5249999999999999
42
0.41421356237309886
10
21.575000000000003
20
-3.125
10
21.575000000000003
20
-15.925000000000002
42
0.41421356237309725
10
22.175000000000004
20
-16.524999999999999
10
34.975000000000009
20
-16.524999999999999
42
0.41421356237309503
10
35.575000000000003
20
-15.925000000000002
10
35.575000000000003
20
-3.125
42
0.41421356237309914
10
34.975000000000009
20
-2.5249999999999999
0
LWPOLYLINE
5
135
100
AcDbEntity
8
0
100
AcDbPolyline
90
8
70
1
43
0.0
10
41.225000000000009
20
-2.5249999999999999
42
0.41421356237309587
10
40.625000000000007
20
-3.125
10
40.625
20
-15.925000000000002
42
0.41421356237310264
10
41.225000000000009
20
-16.525000000000006
10
54.024999999999999
20
-16.524999999999999
42
0.41421356237310047
10
54.625
20
-15.925000000000002
10
54.625
20
-3.125
42
0.41421356237310181
10
54.024999999999999
20
-2.524999999999999
0
LWPOLYLINE
5
136
100
AcDbEntity
8
0
100
AcDbPolyline
90
8
70
1
43
0.0
10
141.23750000000001
20
-21.575000000000003
42
0.41421356237309725
10
140.63750000000002
20
-22.175000000000004
10
140.63749999999999
20
-34.975000000000009
42
0.41421356237310153
10
141.23750000000001
20
-35.575000000000038
10
154.03749999999999
20
-35.575000000000003
42
0.41421356237311024
10
154.63750000000002
20
-34.975000000000009
10
154.63749999999999
20
-22.175000000000004
42
0.41421356237307988
10
154.03749999999999
20
-21.57500000000001
0
LWPOLYLINE
5
137
100
AcDbEntity
8
0
100
AcDbPolyline
90
8
70
1
43
0.0
10
222.19999999999999
20
-59.675000000000004
42
0.41421356237313406
10
221.59999999999999
20
-60.274999999999999
10
221.59999999999999
20
-73.075000000000017
42
0.4142135623731254
10
222.19999999999999
20
-73.674999999999983
10
237.38124999999999
20
-73.674999999999997
42
0.41421356237311674
10
237.98125000000002
20
-73.075000000000017
10
237.98124999999999
20
-60.274999999999999
42
0.41421356237311674
10
237.38124999999999
20
-59.67500000000004
0
LWPOLYLINE
5
138
100
AcDbEntity
8
0
100
AcDbPolyline
90
8
70
1
43
0.0
10
193.625
20
-2.5249999999999999
42
0.41421356237310292
10
193.02500000000003
20
-3.125
10
193.02500000000003
20
-15.925000000000002
42
0.41421356237312001
10
193.625
20
-16.52499999999997
10
206.42500000000001
20
-16.524999999999999
42
0.41421356237310153
10
207.02500000000001
20
-15.925000000000002
10
207.02500000000001
20
-3.125
42
0.41421356237312051
10
206.42500000000001
20
-2.5250000000000314
0
LWPOLYLINE
5
139
100
AcDbEntity
8
0
100
AcDbPolyline
90
8
70
1
43
0.0
10
93.612499999999997
20
-40.625
42
0.41421356237311241
10
93.012499999999989
20
-41.225000000000009
10
93.012500000000017
20
-54.024999999999999
42
0.41421356237307771
10
93.612499999999997
20
-54.624999999999986
10
106.41249999999999
20
-54.625
42
0.41421356237309936
10
107.01249999999999
20
-54.024999999999999
10
107.01250000000002
20
-41.225000000000009
42
0.41421356237309936
10
106.41249999999999
20
-40.624999999999972
0
LWPOLYLINE
5
140
100
AcDbEntity
8
0
100
AcDbPolyline
90
8
70
1
43
0.0
10
169.8125
20
-40.625
42
0.41421356237310375
10
169.21250000000001
20
-41.225000000000009
10
169.21250000000001
20
-54.024999999999999
42
0.41421356237311674
10
169.8125
20
-54.624999999999957
10
182.61250000000001
20
-54.625
42
0.41421356237310375
10
183.21249999999998
20
-54.024999999999999
10
183.21250000000003
20
-41.225000000000009
42
0.41421356237306473
10
182.61250000000001
20
-40.624999999999972
0
LWPOLYLINE
5
141
100
AcDbEntity
8
0
100
AcDbPolyline
90
8
70
1
43
0.0
10
53.131250000000001
20
-59.675000000000004
42
0.41421356237309503
10
52.531250000000007
20
-60.274999999999999
10
52.531250000000007
20
-73.075000000000017
42
0.41421356237309503
10
53.131250000000001
20
-73.675000000000011
10
68.3125
20
-73.674999999999997
42
0.41421356237308637
10
68.912499999999994
20
-73.075000000000017
10
68.912499999999994
20
-60.274999999999999
42
0.41421356237308637
10
68.3125
20
-59.675000000000011
0
LWPOLYLINE
5
142
100
AcDbEntity
8
0
100
AcDbPolyline
90
8
70
1
43
0.0
10
150.76249999999999
20
-59.675000000000004
42
0.41421356237306473
10
150.16250000000002
20
-60.274999999999999
10
150.16249999999999
20
-73.075000000000017
42
0.41421356237311241
10
150.76249999999999
20
-73.675000000000011
10
165.94374999999999
20
-73.674999999999997
42
0.4142135623731254
10
166.54374999999999
20
-73.075000000000017
10
166.54374999999999
20
-60.274999999999999
42
0.4142135623731254
10
165.94374999999999
20
-59.675000000000018
0
LWPOLYLINE
5
143
100
AcDbEntity
8
0
100
AcDbPolyline
90
8
70
1
43
0.0
10
79.325000000000017
20
-2.5249999999999999
42
0.41421356237309587
10
78.725000000000009
20
-3.125
10
78.724999999999994
20
-15.925000000000002
42
0.41421356237308748
10
79.325000000000017
20
-16.52500000000002
10
92.125
20
-16.524999999999999
42
0.4142135623730625
10
92.724999999999994
20
-15.925000000000002
10
92.724999999999994
20
-3.125
42
0.41421356237307988
10
92.125
20
-2.5250000000000083
0
LWPOLYLINE
5
144
100
AcDbEntity
8
0
100
AcDbPolyline
90
8
70
1
43
0.0
10
5.5062500000000005
20
-21.575000000000003
42
0.41421356237309886
10
4.9062500000000009
20
-22.175000000000004
10
4.90625
20
-34.975000000000009
42
0.41421356237309936
10
5.5062500000000005
20
-35.575000000000003
10
18.306249999999999
20
-35.575000000000003
42
0.41421356237309725
10
18.906249999999996
20
-34.975000000000009
10
18.90625
20
-22.175000000000004
42
0.41421356237309725
10
18.306249999999999
20
-21.574999999999996
0
LWPOLYLINE
5
145
100
AcDbEntity
8
0
100
AcDbPolyline
90
8
70
1
43
0.0
10
198.38750000000002
20
-21.575000000000003
42
0.41421356237310375
10
197.78750000000002
20
-22.175000000000004
10
197.78750000000002
20
-34.975000000000009
42
0.41421356237312101
10
198.38750000000002
20
-35.574999999999974
10
211.18750000000003
20
-35.575000000000003
42
0.41421356237310375
10
211.78750000000002
20
-34.975000000000009
10
211.78750000000002
20
-22.175000000000004
42
0.41421356237312101
10
211.18750000000003
20
-21.575000000000031
0
LWPOLYLINE
5
146
100
AcDbEntity
8
0
100
AcDbPolyline
90
8
70
1
43
0.0
10
84.087500000000006
20
-21.575000000000003
42
0.41421356237309725
10
83.487500000000026
20
-22.175000000000004
10
83.487500000000011
20
-34.975000000000009
42
0.41421356237309503
10
84.087500000000006
20
-35.57500000000001
10
96.887500000000003
20
-35.575000000000003
42
0.41421356237311024
10
97.487500000000011
20
-34.975000000000009
10
97.487500000000011
20
-22.175000000000004
42
0.41421356237310802
10
96.887499999999989
20
-21.574999999999989
0
LWPOLYLINE
5
147
100
AcDbEntity
8
0
100
AcDbPolyline
90
8
70
1
43
0.0
10
29.318750000000001
20
-59.675000000000004
42
0.41421356237310153
10
28.718750000000011
20
-60.274999999999999
10
28.71875
20
-73.075000000000017
42
0.41421356237309076
10
29.318750000000001
20
-73.675000000000011
10
44.5
20
-73.674999999999997
42
0.41421356237308637
10
45.099999999999987
20
-73.075000000000017
10
45.100000000000009
20
-60.274999999999999
42
0.41421356237310375
10
44.5
20
-59.674999999999997
0
LWPOLYLINE
5
148
100
AcDbEntity
8
0
100
AcDbPolyline
90
8
70
1
43
0.0
10
222.19999999999999
20
-21.575000000000003
42
0.41421356237312978
10
221.59999999999999
20
-22.175000000000004
10
221.59999999999999
20
-34.975000000000009
42
0.41421356237312978
10
222.19999999999999
20
-35.574999999999989
10
235
20
-35.575000000000003
42
0.41421356237312978
10
235.59999999999999
20
-34.975000000000009
10
235.60000000000002
20
-22.175000000000004
42
0.414213562373069
10
235
20
-21.57499999999996
0
LWPOLYLINE
5
149
100
AcDbEntity
8
0
100
AcDbPolyline
90
8
70
1
43
0.0
10
174.57499999999999
20
-59.675000000000004
42
0.4142135623731254
10
173.97500000000002
20
-60.274999999999999
10
173.97500000000002
20
-73.075000000000017
42
0.41421356237311674
10
174.57499999999999
20
-73.674999999999969
10
189.75625000000002
20
-73.674999999999997
42
0.4142135623731254
10
190.35624999999999
20
-73.075000000000017
10
190.35624999999999
20
-60.274999999999999
42
0.4142135623731254
10
189.75625000000002
20
-59.675000000000018
0
LWPOLYLINE
5
150
100
AcDbEntity
8
0
100
AcDbPolyline
90
8
70
1
43
0.0
10
179.33750000000001
20
-21.575000000000003
42
0.41421356237310375
10
178.73750000000001
20
-22.175000000000004
10
178.73750000000001
20
-34.975000000000009
42
0.41421356237312101
10
179.33750000000001
20
-35.574999999999974
10
192.13750000000002
20
-35.575000000000003
42
0.41421356237310375
10
192.73750000000001
20
-34.975000000000009
10
192.73750000000004
20
-22.175000000000004
42
0.41421356237305174
10
192.13750000000005
20
-21.57499999999996
0
LWPOLYLINE
5
151
100
AcDbEntity
8
0
100
AcDbPolyline
90
8
70
1
43
0.0
10
74.5625
20
-40.625
42
0.41421356237310375
10
73.962500000000006
20
-41.225000000000009
10
73.962500000000006
20
-54.024999999999999
42
0.41421356237310375
10
74.5625
20
-54.624999999999993
10
87.362499999999997
20
-54.625
42
0.41421356237311241
10
87.962500000000006
20
-54.024999999999999
10
87.962500000000006
20
-41.225000000000009
42
0.41421356237311241
10
87.362499999999997
20
-40.625
0
LWPOLYLINE
5
152
100
AcDbEntity
8
0
100
AcDbPolyline
90
8
70
1
43
0.0
10
76.943749999999994
20
-59.675000000000004
42
0.41421356237309503
10
76.34375
20
-60.274999999999999
10
76.34375
20
-73.075000000000017
42
0.41421356237309503
10
76.943749999999994
20
-73.675000000000011
10
92.125
20
-73.674999999999997
42
0.41421356237307771
10
92.724999999999994
20
-73.075000000000017
10
92.724999999999994
20
-60.274999999999999
42
0.41421356237307771
10
92.125
20
-59.675000000000011
0
LWPOLYLINE
5
153
100
AcDbEntity
8
0
100
AcDbPolyline
90
8
70
1
43
0.0
10
45.987499999999997
20
-21.575000000000003
42
0.41421356237310375
10
45.387500000000003
20
-22.175000000000004
10
45.387500000000003
20
-34.975000000000009
42
0.41421356237309076
10
45.987499999999997
20
-35.57500000000001
10
58.787500000000001
20
-35.575000000000003
42
0.41421356237309287
10
59.387500000000003
20
-34.975000000000009
10
59.387500000000003
20
-22.175000000000004
42
0.41421356237310153
10
58.787499999999994
20
-21.574999999999992
0
LWPOLYLINE
5
154
100
AcDbEntity
8
0
100
AcDbPolyline
90
8
70
1
43
0.0
10
131.71250000000001
20
-40.625
42
0.41421356237309936
10
131.11250000000001
20
-41.225000000000009
10
131.11250000000001
20
-54.024999999999999
42
0.41421356237309503
10
131.71250000000001
20
-54.624999999999986
10
144.51249999999999
20
-54.625
42
0.41421356237311241
10
145.11250000000001
20
-54.024999999999999
10
145.11250000000001
20
-41.225000000000009
42
0.41421356237309936
10
144.51250000000002
20
-40.624999999999993
0
LWPOLYLINE
5
155
100
AcDbEntity
8
0
100
AcDbPolyline
90
8
70
1
43
0.0
10
150.76249999999999
20
-40.625
42
0.41421356237311241
10
150.16249999999999
20
-41.225000000000009
10
150.16249999999999
20
-54.024999999999999
42
0.41421356237311241
10
150.76249999999999
20
-54.625
10
163.5625
20
-54.625
42
0.41421356237310375
10
164.16249999999997
20
-54.024999999999999
10
164.16250000000002
20
-41.225000000000009
42
0.41421356237306473
10
163.5625
20
-40.624999999999972
0
LWPOLYLINE
5
156
100
AcDbEntity
8
0
100
AcDbPolyline
90
8
70
1
43
0.0
10
55.512500000000003
20
-40.625
42
0.41421356237310375
10
54.912500000000001
20
-41.225000000000009
10
54.912500000000009
20
-54.024999999999999
42
0.41421356237309503
10
55.512500000000003
20
-54.624999999999993
10
68.3125
20
-54.625
42
0.41421356237310375
10
68.912500000000009
20
-54.024999999999999
10
68.912499999999994
20
-41.225000000000009
42
0.41421356237308637
10
68.3125
20
-40.625000000000014
0
LWPOLYLINE
5
157
100
AcDbEntity
8
0
100
AcDbPolyline
90
8
70
1
43
0.0
10
60.274999999999999
20
-2.5249999999999999
42
0.41421356237309587
10
59.675000000000004
20
-3.125
10
59.675000000000004
20
-15.925000000000002
42
0.41421356237310047
10
60.274999999999999
20
-16.524999999999991
10
73.075000000000017
20
-16.524999999999999
42
0.41421356237310047
10
73.675000000000011
20
-15.925000000000002
10
73.674999999999997
20
-3.125
42
0.41421356237308854
10
73.075000000000017
20
-2.5250000000000083
0
ENDSEC
0
SECTION
2
OBJECTS
0
DICTIONARY
5
C
100
AcDbDictionary
3
ACAD_GROUP
350
D
3
ACAD_MLINESTYLE
350
17
0
DICTIONARY
5
D
100
AcDbDictionary
0
DICTIONARY
5
1A
330
C
100
AcDbDictionary
0
DICTIONARY
5
17
100
AcDbDictionary
0
ENDSEC
0
EOF
